<svg width="1728" height="320" viewBox="0 0 1728 320" fill="none" xmlns="http://www.w3.org/2000/svg">
<rect width="1728" height="320" fill="#313144"/>
<mask id="mask0_49_2153" style="mask-type:alpha" maskUnits="userSpaceOnUse" x="0" y="0" width="1728" height="320">
<rect width="1728" height="320" fill="#313144"/>
</mask>
<g mask="url(#mask0_49_2153)">
<g opacity="0.12">
<path d="M497.959 532.088C446.466 625.112 329.63 658.944 237.002 607.67C144.376 556.397 111.017 439.425 162.511 346.401C214.003 253.379 330.84 219.545 423.466 270.818C516.094 322.092 549.451 439.066 497.959 532.088Z" stroke="#F9F9FA"/>
<path d="M531.02 550.444C469.173 662.173 328.842 702.812 217.585 641.226C106.329 579.641 66.263 439.143 128.11 327.415C189.958 215.684 330.291 175.046 441.548 236.632C552.804 298.217 592.868 438.714 531.02 550.444Z" stroke="#F9F9FA"/>
<path d="M562.752 568.356C491.158 697.692 328.712 744.737 199.923 673.446C71.1332 602.155 24.7561 439.517 96.3498 310.18C167.944 180.844 330.389 133.802 459.178 205.093C587.968 276.384 634.346 439.02 562.752 568.356Z" stroke="#F9F9FA"/>
<path d="M601.622 588.313C518.456 738.556 329.749 793.206 180.139 710.39C30.5291 627.573 -23.3441 438.643 59.8221 288.401C142.988 138.159 331.695 83.5083 481.305 166.325C630.915 249.141 684.788 438.071 601.622 588.313Z" stroke="#F9F9FA"/>
<path d="M635.398 607.53C541.877 776.478 329.673 837.933 161.435 744.805C-6.80527 651.676 -67.3853 439.223 26.1358 270.274C119.658 101.324 331.859 39.869 500.099 132.998C668.337 226.126 728.92 438.579 635.398 607.53Z" stroke="#F9F9FA"/>
<path d="M671.195 628.053C566.71 816.809 329.63 885.47 141.667 781.423C-46.2969 677.376 -113.98 440.014 -9.49502 251.258C94.9913 62.5007 332.072 -6.15885 520.036 97.888C707.999 201.935 775.681 439.295 671.195 628.053Z" stroke="#F9F9FA"/>
<path d="M702.932 645.96C588.7 852.324 329.507 927.388 124.008 813.635C-81.4883 699.883 -155.484 440.382 -41.2523 234.019C72.9796 27.6558 332.173 -47.409 537.67 66.3432C743.169 180.096 817.164 439.597 702.932 645.96Z" stroke="#F9F9FA"/>
<path d="M739.939 664.891C614.134 892.162 328.68 974.833 102.363 849.556C-123.955 724.278 -205.448 438.485 -79.6424 211.214C46.162 -16.0557 331.618 -98.7268 557.935 26.5506C784.252 151.828 865.744 437.622 739.939 664.891Z" stroke="#F9F9FA"/>
<path d="M777.78 686.707C640.402 934.885 328.687 1025.16 81.5476 888.358C-165.59 751.555 -254.579 439.47 -117.201 191.293C20.1772 -56.8845 331.892 -147.161 579.03 -10.3586C826.17 126.445 915.158 438.53 777.78 686.707Z" stroke="#F9F9FA"/>
<path d="M154.24 95.5702C153.131 97.5729 150.61 98.2971 148.607 97.1885C146.604 96.0801 145.879 93.5586 146.988 91.5559C148.097 89.5532 150.618 88.829 152.621 89.9375C154.623 91.0461 155.348 93.5675 154.24 95.5702Z" fill="#F9F9FA" stroke="#F9F9FA"/>
<path d="M222.976 151.378C221.868 153.379 219.346 154.105 217.343 152.997C215.341 151.888 214.617 149.365 215.725 147.364C216.833 145.361 219.355 144.635 221.358 145.744C223.361 146.852 224.084 149.375 222.976 151.378Z" fill="#F9F9FA" stroke="#F9F9FA"/>
<path d="M141.421 260.415C139.632 263.647 135.56 264.817 132.326 263.027C129.094 261.238 127.924 257.166 129.713 253.934C131.503 250.7 135.576 249.53 138.807 251.319C142.041 253.109 143.211 257.181 141.421 260.415Z" fill="#F9F9FA" stroke="#F9F9FA"/>
<path d="M24.1081 288.158C22.3181 291.392 18.2471 292.56 15.0138 290.77C11.7805 288.981 10.6097 284.91 12.3997 281.677C14.1898 278.443 18.2617 277.273 21.4948 279.062C24.728 280.852 25.8982 284.924 24.1081 288.158Z" fill="#F9F9FA" stroke="#F9F9FA"/>
<path d="M389.665 179.545C388.557 181.548 386.036 182.273 384.033 181.164C382.03 180.055 381.306 177.534 382.414 175.532C383.523 173.529 386.044 172.804 388.047 173.913C390.049 175.022 390.774 177.543 389.665 179.545Z" fill="#F9F9FA" stroke="#F9F9FA"/>
<path d="M609.648 166.773C607.859 170.004 603.787 171.175 600.553 169.385C597.321 167.596 596.151 163.523 597.94 160.292C599.73 157.058 603.802 155.888 607.034 157.677C610.268 159.467 611.438 163.539 609.648 166.773Z" fill="#F9F9FA" stroke="#F9F9FA"/>
<path d="M593.37 265.75C591.58 268.984 587.508 270.154 584.274 268.364C581.04 266.574 579.87 262.502 581.66 259.268C583.449 256.037 587.521 254.866 590.755 256.656C593.989 258.446 595.159 262.519 593.37 265.75Z" fill="#F9F9FA" stroke="#F9F9FA"/>
</g>
<path opacity="0.12" d="M828.284 688.741C684.84 947.877 359.36 1042.14 101.308 899.296C-156.743 756.452 -249.661 430.587 -106.217 171.45C37.2273 -87.6858 362.706 -181.949 620.757 -39.1056C878.81 103.739 971.728 429.605 828.284 688.741Z" stroke="#F9F9FA"/>
</g>
</svg>
