<svg width="35" height="20" viewBox="0 0 35 20" fill="none" xmlns="http://www.w3.org/2000/svg">
<path d="M19.7421 10.0002C19.7421 15.5229 15.3226 20 9.87122 20C4.41981 20 0 15.5229 0 10.0002C0 4.4774 4.41948 0 9.87122 0C15.323 0 19.7421 4.4774 19.7421 10.0002Z" fill="#A9A9B9"/>
<path d="M30.5708 10.0001C30.5708 15.1986 28.3611 19.4145 25.6352 19.4145C22.9093 19.4145 20.6996 15.1986 20.6996 10.0001C20.6996 4.80158 22.909 0.585693 25.6349 0.585693C28.3607 0.585693 30.5705 4.80023 30.5705 10.0001" fill="#A9A9B9"/>
<path d="M35.0001 10.0001C35.0001 14.6567 34.223 18.4339 33.2642 18.4339C32.3054 18.4339 31.5287 14.6577 31.5287 10.0001C31.5287 5.3425 32.3057 1.56628 33.2642 1.56628C34.2227 1.56628 35.0001 5.34216 35.0001 10.0001Z" fill="#A9A9B9"/>
</svg>
