<svg width="37" height="32" viewBox="0 0 37 32" fill="none" xmlns="http://www.w3.org/2000/svg">
<mask id="path-1-inside-1_301_119" fill="white">
<path d="M6.31731 1.60088C6.31731 2.48501 5.6239 3.20176 4.76855 3.20176C3.91317 3.20176 3.21978 2.48501 3.21978 1.60088C3.21978 0.716747 3.91317 0 4.76855 0C5.6239 0 6.31731 0.716747 6.31731 1.60088Z"/>
<path d="M0.983962 2.61943C1.28529 2.61943 1.52955 2.36692 1.52955 2.05548C1.52955 1.74402 1.28529 1.49154 0.983962 1.49154C0.682636 1.49154 0.438374 1.74402 0.438374 2.05548C0.438374 2.36692 0.682636 2.61943 0.983962 2.61943Z"/>
<path d="M8.67706 18.5744C8.67706 18.8859 8.4328 19.1384 8.13147 19.1384C7.83015 19.1384 7.58589 18.8859 7.58589 18.5744C7.58589 18.263 7.83015 18.0104 8.13147 18.0104C8.4328 18.0104 8.67706 18.263 8.67706 18.5744Z"/>
<path d="M1.09118 19.2563C1.09118 19.5678 0.846915 19.8203 0.545588 19.8203C0.244262 19.8203 0 19.5678 0 19.2563C0 18.9448 0.244262 18.6923 0.545588 18.6923C0.846915 18.6923 1.09118 18.9448 1.09118 19.2563Z"/>
<path d="M10.3233 22.3669C10.6247 22.3669 10.8689 22.1144 10.8689 21.8029C10.8689 21.4915 10.6247 21.2389 10.3233 21.2389C10.022 21.2389 9.77776 21.4915 9.77776 21.8029C9.77776 22.1144 10.022 22.3669 10.3233 22.3669Z"/>
<path d="M17.3338 19.4379C17.3338 19.7493 17.0895 20.0019 16.7882 20.0019C16.4868 20.0019 16.2425 19.7493 16.2425 19.4379C16.2425 19.1264 16.4868 18.8741 16.7882 18.8741C17.0895 18.8741 17.3338 19.1264 17.3338 19.4379Z"/>
<path d="M2.40004 8.87809C2.40004 9.36028 2.02181 9.75121 1.55524 9.75121C1.0887 9.75121 0.710468 9.36028 0.710468 8.87809C0.710468 8.39585 1.0887 8.00489 1.55524 8.00489C2.02181 8.00489 2.40004 8.39585 2.40004 8.87809Z"/>
<path d="M15.2835 17.9371C15.6725 17.9371 15.9875 17.6112 15.9875 17.2093C15.9875 16.8075 15.6725 16.4819 15.2835 16.4819C14.8947 16.4819 14.5797 16.8075 14.5797 17.2093C14.5797 17.6112 14.8947 17.9371 15.2835 17.9371Z"/>
<path d="M1.79345 26.0782C1.79345 26.4803 1.47827 26.8059 1.08946 26.8059C0.700674 26.8059 0.385467 26.4803 0.385467 26.0782C0.385467 25.6763 0.700674 25.3507 1.08946 25.3507C1.47827 25.3507 1.79345 25.6763 1.79345 26.0782Z"/>
<path d="M6.5085 22.9398C6.93619 22.9398 7.2829 22.5814 7.2829 22.1392C7.2829 21.6974 6.93619 21.339 6.5085 21.339C6.08084 21.339 5.73413 21.6974 5.73413 22.1392C5.73413 22.5814 6.08084 22.9398 6.5085 22.9398Z"/>
<path d="M15.4761 28.2616C15.4761 28.7038 15.1294 29.0622 14.7017 29.0622C14.2739 29.0622 13.9272 28.7038 13.9272 28.2616C13.9272 27.8198 14.2739 27.4614 14.7017 27.4614C15.1294 27.4614 15.4761 27.8198 15.4761 28.2616Z"/>
<path d="M12.5026 25.6685C12.8428 25.6685 13.1186 25.3835 13.1186 25.032C13.1186 24.6803 12.8428 24.3952 12.5026 24.3952C12.1623 24.3952 11.8865 24.6803 11.8865 25.032C11.8865 25.3835 12.1623 25.6685 12.5026 25.6685Z"/>
<path d="M4.21368 29.3251C4.21368 29.8525 3.80001 30.2803 3.28968 30.2803C2.77939 30.2803 2.36571 29.8525 2.36571 29.3251C2.36571 28.7976 2.77939 28.3701 3.28968 28.3701C3.80001 28.3701 4.21368 28.7976 4.21368 29.3251Z"/>
<path d="M6.97707 6.64017C7.75955 6.64017 8.39385 5.98452 8.39385 5.17572C8.39385 4.36692 7.75955 3.71127 6.97707 3.71127C6.1946 3.71127 5.5603 4.36692 5.5603 5.17572C5.5603 5.98452 6.1946 6.64017 6.97707 6.64017Z"/>
<path d="M5.33962 10.2421C6.07349 10.2421 6.6684 9.6272 6.6684 8.86862C6.6684 8.11006 6.07349 7.49512 5.33962 7.49512C4.60578 7.49512 4.01087 8.11006 4.01087 8.86862C4.01087 9.6272 4.60578 10.2421 5.33962 10.2421Z"/>
<path d="M10.5681 8.18648C10.5681 8.98523 9.94171 9.6328 9.16896 9.6328C8.39622 9.6328 7.7698 8.98523 7.7698 8.18648C7.7698 7.38773 8.39622 6.74024 9.16896 6.74024C9.94171 6.74024 10.5681 7.38773 10.5681 8.18648Z"/>
<path d="M3.75619 13.4707C4.49491 13.4707 5.09377 12.8515 5.09377 12.088C5.09377 11.3245 4.49491 10.7053 3.75619 10.7053C3.01748 10.7053 2.41862 11.3245 2.41862 12.088C2.41862 12.8515 3.01748 13.4707 3.75619 13.4707Z"/>
<path d="M8.82522 11.7613C8.82522 12.4896 8.25397 13.0803 7.54926 13.0803C6.84457 13.0803 6.27328 12.4896 6.27328 11.7613C6.27328 11.0328 6.84457 10.4424 7.54926 10.4424C8.25397 10.4424 8.82522 11.0328 8.82522 11.7613Z"/>
<path d="M11.3678 12.5614C11.9801 12.5614 12.4764 12.0483 12.4764 11.4152C12.4764 10.7824 11.9801 10.2694 11.3678 10.2694C10.7554 10.2694 10.259 10.7824 10.259 11.4152C10.259 12.0483 10.7554 12.5614 11.3678 12.5614Z"/>
<path d="M10.8566 14.9987C10.8566 15.6315 10.3601 16.1448 9.74776 16.1448C9.13541 16.1448 8.63899 15.6315 8.63899 14.9987C8.63899 14.3656 9.13541 13.8525 9.74776 13.8525C10.3601 13.8525 10.8566 14.3656 10.8566 14.9987Z"/>
<path d="M5.93088 16.4907C6.54326 16.4907 7.03968 15.9776 7.03968 15.3445C7.03968 14.7117 6.54326 14.1987 5.93088 14.1987C5.31853 14.1987 4.82211 14.7117 4.82211 15.3445C4.82211 15.9776 5.31853 16.4907 5.93088 16.4907Z"/>
<path d="M5.58785 18.9011C5.58785 19.6243 5.02054 20.2107 4.32068 20.2107C3.62084 20.2107 3.0535 19.6243 3.0535 18.9011C3.0535 18.1776 3.62084 17.5912 4.32068 17.5912C5.02054 17.5912 5.58785 18.1776 5.58785 18.9011Z"/>
<path d="M2.71106 23.64C3.33314 23.64 3.83745 23.1189 3.83745 22.4757C3.83745 21.8328 3.33314 21.3115 2.71106 21.3115C2.08898 21.3115 1.5847 21.8328 1.5847 22.4757C1.5847 23.1189 2.08898 23.64 2.71106 23.64Z"/>
<path d="M15.3809 21.4395C15.3809 22.1579 14.8175 22.74 14.1225 22.74C13.4275 22.74 12.864 22.1579 12.864 21.4395C12.864 20.7211 13.4275 20.1387 14.1225 20.1387C14.8175 20.1387 15.3809 20.7211 15.3809 21.4395Z"/>
<path d="M11.914 19.5376C12.614 19.5376 13.1813 18.9512 13.1813 18.2278C13.1813 17.5043 12.614 16.9179 11.914 16.9179C11.2143 16.9179 10.6469 17.5043 10.6469 18.2278C10.6469 18.9512 11.2143 19.5376 11.914 19.5376Z"/>
<path d="M6.15975 25.7326C6.15975 26.456 5.59244 27.0424 4.89258 27.0424C4.19274 27.0424 3.6254 26.456 3.6254 25.7326C3.6254 25.0093 4.19274 24.4229 4.89258 24.4229C5.59244 24.4229 6.15975 25.0093 6.15975 25.7326Z"/>
<path d="M2.10301 16.6552C2.62303 16.6552 3.04458 16.2194 3.04458 15.6818C3.04458 15.1445 2.62303 14.7085 2.10301 14.7085C1.58299 14.7085 1.16144 15.1445 1.16144 15.6818C1.16144 16.2194 1.58299 16.6552 2.10301 16.6552Z"/>
<path d="M14.5027 14.6446C14.5027 15.1822 14.0811 15.6179 13.5613 15.6179C13.0412 15.6179 12.6196 15.1822 12.6196 14.6446C12.6196 14.107 13.0412 13.6712 13.5613 13.6712C14.0811 13.6712 14.5027 14.107 14.5027 14.6446Z"/>
<path d="M3.17533 6.73073C3.94807 6.73073 4.57451 6.08321 4.57451 5.28449C4.57451 4.48574 3.94807 3.83822 3.17533 3.83822C2.40259 3.83822 1.77617 4.48574 1.77617 5.28449C1.77617 6.08321 2.40259 6.73073 3.17533 6.73073Z"/>
<path d="M36.4544 19.8203C36.7557 19.8203 37 19.5678 37 19.2563C37 18.9448 36.7557 18.6923 36.4544 18.6923C36.153 18.6923 35.9087 18.9448 35.9087 19.2563C35.9087 19.5678 36.153 19.8203 36.4544 19.8203Z"/>
<path d="M29.409 18.5744C29.409 18.8859 29.1647 19.1384 28.8633 19.1384C28.562 19.1384 28.318 18.8859 28.318 18.5744C28.318 18.263 28.562 18.0104 28.8633 18.0104C29.1647 18.0104 29.409 18.263 29.409 18.5744Z"/>
<path d="M26.6817 22.3669C26.983 22.3669 27.2273 22.1144 27.2273 21.8029C27.2273 21.4915 26.983 21.2389 26.6817 21.2389C26.3804 21.2389 26.1363 21.4915 26.1363 21.8029C26.1363 22.1144 26.3804 22.3669 26.6817 22.3669Z"/>
<path d="M20.7575 19.4379C20.7575 19.7493 20.5132 20.0019 20.2118 20.0019C19.9105 20.0019 19.6662 19.7493 19.6662 19.4379C19.6662 19.1264 19.9105 18.8741 20.2118 18.8741C20.5132 18.8741 20.7575 19.1264 20.7575 19.4379Z"/>
<path d="M36.0161 2.61943C36.3175 2.61943 36.5618 2.36692 36.5618 2.05548C36.5618 1.74402 36.3175 1.49154 36.0161 1.49154C35.7148 1.49154 35.4705 1.74402 35.4705 2.05548C35.4705 2.36692 35.7148 2.61943 36.0161 2.61943Z"/>
<path d="M36.2909 8.87809C36.2909 9.36028 35.9127 9.75121 35.4462 9.75121C34.9795 9.75121 34.6013 9.36028 34.6013 8.87809C34.6013 8.39585 34.9795 8.00489 35.4462 8.00489C35.9127 8.00489 36.2909 8.39585 36.2909 8.87809Z"/>
<path d="M21.7183 17.9371C22.1071 17.9371 22.4223 17.6112 22.4223 17.2093C22.4223 16.8075 22.1071 16.4819 21.7183 16.4819C21.3295 16.4819 21.0142 16.8075 21.0142 17.2093C21.0142 17.6112 21.3295 17.9371 21.7183 17.9371Z"/>
<path d="M36.6064 26.0782C36.6064 26.4803 36.2911 26.8059 35.9024 26.8059C35.5136 26.8059 35.1986 26.4803 35.1986 26.0782C35.1986 25.6763 35.5136 25.3507 35.9024 25.3507C36.2911 25.3507 36.6064 25.6763 36.6064 26.0782Z"/>
<path d="M30.4831 22.9398C30.9109 22.9398 31.2576 22.5814 31.2576 22.1392C31.2576 21.6974 30.9109 21.339 30.4831 21.339C30.0554 21.339 29.7087 21.6974 29.7087 22.1392C29.7087 22.5814 30.0554 22.9398 30.4831 22.9398Z"/>
<path d="M23.0718 28.2616C23.0718 28.7038 22.7251 29.0622 22.2974 29.0622C21.8699 29.0622 21.5232 28.7038 21.5232 28.2616C21.5232 27.8198 21.8699 27.4614 22.2974 27.4614C22.7251 27.4614 23.0718 27.8198 23.0718 28.2616Z"/>
<path d="M24.4898 25.6685C24.8298 25.6685 25.1056 25.3835 25.1056 25.032C25.1056 24.6803 24.8298 24.3952 24.4898 24.3952C24.1495 24.3952 23.8737 24.6803 23.8737 25.032C23.8737 25.3835 24.1495 25.6685 24.4898 25.6685Z"/>
<path d="M34.6252 29.3251C34.6252 29.8525 34.2114 30.2803 33.7011 30.2803C33.1908 30.2803 32.7773 29.8525 32.7773 29.3251C32.7773 28.7976 33.1908 28.3701 33.7011 28.3701C34.2114 28.3701 34.6252 28.7976 34.6252 29.3251Z"/>
<path d="M30.017 6.64017C30.7995 6.64017 31.4338 5.98452 31.4338 5.17572C31.4338 4.36692 30.7995 3.71127 30.017 3.71127C29.2345 3.71127 28.6001 4.36692 28.6001 5.17572C28.6001 5.98452 29.2345 6.64017 30.017 6.64017Z"/>
<path d="M33.7737 1.60088C33.7737 2.48501 33.0803 3.20176 32.225 3.20176C31.3696 3.20176 30.6761 2.48501 30.6761 1.60088C30.6761 0.716747 31.3696 0 32.225 0C33.0803 0 33.7737 0.716747 33.7737 1.60088Z"/>
<path d="M31.6523 10.2421C32.386 10.2421 32.9809 9.6272 32.9809 8.86862C32.9809 8.11006 32.386 7.49512 31.6523 7.49512C30.9183 7.49512 30.3234 8.11006 30.3234 8.86862C30.3234 9.6272 30.9183 10.2421 31.6523 10.2421Z"/>
<path d="M29.2318 8.18648C29.2318 8.98523 28.6054 9.6328 27.8325 9.6328C27.0598 9.6328 26.4334 8.98523 26.4334 8.18648C26.4334 7.38773 27.0598 6.74024 27.8325 6.74024C28.6054 6.74024 29.2318 7.38773 29.2318 8.18648Z"/>
<path d="M33.2382 13.4707C33.9768 13.4707 34.5758 12.8515 34.5758 12.088C34.5758 11.3245 33.9768 10.7053 33.2382 10.7053C32.4996 10.7053 31.9005 11.3245 31.9005 12.088C31.9005 12.8515 32.4996 13.4707 33.2382 13.4707Z"/>
<path d="M30.7289 11.7613C30.7289 12.4896 30.1574 13.0803 29.4529 13.0803C28.7481 13.0803 28.1769 12.4896 28.1769 11.7613C28.1769 11.0328 28.7481 10.4424 29.4529 10.4424C30.1574 10.4424 30.7289 11.0328 30.7289 11.7613Z"/>
<path d="M25.6325 12.5614C26.2449 12.5614 26.7413 12.0483 26.7413 11.4152C26.7413 10.7824 26.2449 10.2694 25.6325 10.2694C25.0203 10.2694 24.5239 10.7824 24.5239 11.4152C24.5239 12.0483 25.0203 12.5614 25.6325 12.5614Z"/>
<path d="M28.3537 14.9987C28.3537 15.6315 27.8573 16.1448 27.2449 16.1448C26.6327 16.1448 26.1363 15.6315 26.1363 14.9987C26.1363 14.3656 26.6327 13.8525 27.2449 13.8525C27.8573 13.8525 28.3537 14.3656 28.3537 14.9987Z"/>
<path d="M31.0718 16.4907C31.6843 16.4907 32.1807 15.9776 32.1807 15.3445C32.1807 14.7117 31.6843 14.1987 31.0718 14.1987C30.4596 14.1987 29.9633 14.7117 29.9633 15.3445C29.9633 15.9776 30.4596 16.4907 31.0718 16.4907Z"/>
<path d="M33.9386 18.9011C33.9386 19.6243 33.3712 20.2107 32.6713 20.2107C31.9717 20.2107 31.4044 19.6243 31.4044 18.9011C31.4044 18.1776 31.9717 17.5912 32.6713 17.5912C33.3712 17.5912 33.9386 18.1776 33.9386 18.9011Z"/>
<path d="M34.2815 23.64C34.9036 23.64 35.4079 23.1189 35.4079 22.4757C35.4079 21.8328 34.9036 21.3115 34.2815 21.3115C33.6593 21.3115 33.1552 21.8328 33.1552 22.4757C33.1552 23.1189 33.6593 23.64 34.2815 23.64Z"/>
<path d="M24.1281 21.4395C24.1281 22.1579 23.5647 22.74 22.8697 22.74C22.1747 22.74 21.6115 22.1579 21.6115 21.4395C21.6115 20.7211 22.1747 20.1387 22.8697 20.1387C23.5647 20.1387 24.1281 20.7211 24.1281 21.4395Z"/>
<path d="M25.078 19.5376C25.7776 19.5376 26.3452 18.9512 26.3452 18.2278C26.3452 17.5043 25.7776 16.9179 25.078 16.9179C24.3781 16.9179 23.8108 17.5043 23.8108 18.2278C23.8108 18.9512 24.3781 19.5376 25.078 19.5376Z"/>
<path d="M33.3766 25.7326C33.3766 26.456 32.8093 27.0424 32.1096 27.0424C31.4097 27.0424 30.8424 26.456 30.8424 25.7326C30.8424 25.0093 31.4097 24.4229 32.1096 24.4229C32.8093 24.4229 33.3766 25.0093 33.3766 25.7326Z"/>
<path d="M34.8904 16.6552C35.4103 16.6552 35.8318 16.2194 35.8318 15.6818C35.8318 15.1445 35.4103 14.7085 34.8904 14.7085C34.3703 14.7085 33.9488 15.1445 33.9488 15.6818C33.9488 16.2194 34.3703 16.6552 34.8904 16.6552Z"/>
<path d="M24.3837 14.6446C24.3837 15.1822 23.9622 15.6179 23.4423 15.6179C22.9222 15.6179 22.5007 15.1822 22.5007 14.6446C22.5007 14.107 22.9222 13.6712 23.4423 13.6712C23.9622 13.6712 24.3837 14.107 24.3837 14.6446Z"/>
<path d="M33.8238 6.73073C34.5964 6.73073 35.2228 6.08321 35.2228 5.28449C35.2228 4.48574 34.5964 3.83822 33.8238 3.83822C33.0511 3.83822 32.4247 4.48574 32.4247 5.28449C32.4247 6.08321 33.0511 6.73073 33.8238 6.73073Z"/>
<path d="M18.4977 22.9034C19.1101 22.9034 19.6065 22.3904 19.6065 21.7573C19.6065 21.1245 19.1101 20.6112 18.4977 20.6112C17.8855 20.6112 17.3888 21.1245 17.3888 21.7573C17.3888 22.3904 17.8855 22.9034 18.4977 22.9034Z"/>
<path d="M19.6065 28.0064C19.6065 28.6395 19.1101 29.1526 18.4977 29.1526C17.8855 29.1526 17.3888 28.6395 17.3888 28.0064C17.3888 27.3736 17.8855 26.8603 18.4977 26.8603C19.1101 26.8603 19.6065 27.3736 19.6065 28.0064Z"/>
<path d="M16.3058 25.832C16.9182 25.832 17.4146 25.3187 17.4146 24.6859C17.4146 24.0528 16.9182 23.5397 16.3058 23.5397C15.6933 23.5397 15.197 24.0528 15.197 24.6859C15.197 25.3187 15.6933 25.832 16.3058 25.832Z"/>
<path d="M21.7956 24.6859C21.7956 25.3187 21.2992 25.832 20.6868 25.832C20.0746 25.832 19.5782 25.3187 19.5782 24.6859C19.5782 24.0528 20.0746 23.5397 20.6868 23.5397C21.2992 23.5397 21.7956 24.0528 21.7956 24.6859Z"/>
<path d="M16.8839 32C17.1465 32 17.3591 31.78 17.3591 31.5088C17.3591 31.2376 17.1465 31.0176 16.8839 31.0176C16.6215 31.0176 16.4089 31.2376 16.4089 31.5088C16.4089 31.78 16.6215 32 16.8839 32Z"/>
<path d="M20.5916 31.5088C20.5916 31.78 20.3787 32 20.1164 32C19.8537 32 19.6412 31.78 19.6412 31.5088C19.6412 31.2376 19.8537 31.0176 20.1164 31.0176C20.3787 31.0176 20.5916 31.2376 20.5916 31.5088Z"/>
</mask>
<path d="M6.31731 1.60088C6.31731 2.48501 5.6239 3.20176 4.76855 3.20176C3.91317 3.20176 3.21978 2.48501 3.21978 1.60088C3.21978 0.716747 3.91317 0 4.76855 0C5.6239 0 6.31731 0.716747 6.31731 1.60088Z" fill="#323245"/>
<path d="M0.983962 2.61943C1.28529 2.61943 1.52955 2.36692 1.52955 2.05548C1.52955 1.74402 1.28529 1.49154 0.983962 1.49154C0.682636 1.49154 0.438374 1.74402 0.438374 2.05548C0.438374 2.36692 0.682636 2.61943 0.983962 2.61943Z" fill="#323245"/>
<path d="M8.67706 18.5744C8.67706 18.8859 8.4328 19.1384 8.13147 19.1384C7.83015 19.1384 7.58589 18.8859 7.58589 18.5744C7.58589 18.263 7.83015 18.0104 8.13147 18.0104C8.4328 18.0104 8.67706 18.263 8.67706 18.5744Z" fill="#323245"/>
<path d="M1.09118 19.2563C1.09118 19.5678 0.846915 19.8203 0.545588 19.8203C0.244262 19.8203 0 19.5678 0 19.2563C0 18.9448 0.244262 18.6923 0.545588 18.6923C0.846915 18.6923 1.09118 18.9448 1.09118 19.2563Z" fill="#323245"/>
<path d="M10.3233 22.3669C10.6247 22.3669 10.8689 22.1144 10.8689 21.8029C10.8689 21.4915 10.6247 21.2389 10.3233 21.2389C10.022 21.2389 9.77776 21.4915 9.77776 21.8029C9.77776 22.1144 10.022 22.3669 10.3233 22.3669Z" fill="#323245"/>
<path d="M17.3338 19.4379C17.3338 19.7493 17.0895 20.0019 16.7882 20.0019C16.4868 20.0019 16.2425 19.7493 16.2425 19.4379C16.2425 19.1264 16.4868 18.8741 16.7882 18.8741C17.0895 18.8741 17.3338 19.1264 17.3338 19.4379Z" fill="#323245"/>
<path d="M2.40004 8.87809C2.40004 9.36028 2.02181 9.75121 1.55524 9.75121C1.0887 9.75121 0.710468 9.36028 0.710468 8.87809C0.710468 8.39585 1.0887 8.00489 1.55524 8.00489C2.02181 8.00489 2.40004 8.39585 2.40004 8.87809Z" fill="#323245"/>
<path d="M15.2835 17.9371C15.6725 17.9371 15.9875 17.6112 15.9875 17.2093C15.9875 16.8075 15.6725 16.4819 15.2835 16.4819C14.8947 16.4819 14.5797 16.8075 14.5797 17.2093C14.5797 17.6112 14.8947 17.9371 15.2835 17.9371Z" fill="#323245"/>
<path d="M1.79345 26.0782C1.79345 26.4803 1.47827 26.8059 1.08946 26.8059C0.700674 26.8059 0.385467 26.4803 0.385467 26.0782C0.385467 25.6763 0.700674 25.3507 1.08946 25.3507C1.47827 25.3507 1.79345 25.6763 1.79345 26.0782Z" fill="#323245"/>
<path d="M6.5085 22.9398C6.93619 22.9398 7.2829 22.5814 7.2829 22.1392C7.2829 21.6974 6.93619 21.339 6.5085 21.339C6.08084 21.339 5.73413 21.6974 5.73413 22.1392C5.73413 22.5814 6.08084 22.9398 6.5085 22.9398Z" fill="#323245"/>
<path d="M15.4761 28.2616C15.4761 28.7038 15.1294 29.0622 14.7017 29.0622C14.2739 29.0622 13.9272 28.7038 13.9272 28.2616C13.9272 27.8198 14.2739 27.4614 14.7017 27.4614C15.1294 27.4614 15.4761 27.8198 15.4761 28.2616Z" fill="#323245"/>
<path d="M12.5026 25.6685C12.8428 25.6685 13.1186 25.3835 13.1186 25.032C13.1186 24.6803 12.8428 24.3952 12.5026 24.3952C12.1623 24.3952 11.8865 24.6803 11.8865 25.032C11.8865 25.3835 12.1623 25.6685 12.5026 25.6685Z" fill="#323245"/>
<path d="M4.21368 29.3251C4.21368 29.8525 3.80001 30.2803 3.28968 30.2803C2.77939 30.2803 2.36571 29.8525 2.36571 29.3251C2.36571 28.7976 2.77939 28.3701 3.28968 28.3701C3.80001 28.3701 4.21368 28.7976 4.21368 29.3251Z" fill="#323245"/>
<path d="M6.97707 6.64017C7.75955 6.64017 8.39385 5.98452 8.39385 5.17572C8.39385 4.36692 7.75955 3.71127 6.97707 3.71127C6.1946 3.71127 5.5603 4.36692 5.5603 5.17572C5.5603 5.98452 6.1946 6.64017 6.97707 6.64017Z" fill="#323245"/>
<path d="M5.33962 10.2421C6.07349 10.2421 6.6684 9.6272 6.6684 8.86862C6.6684 8.11006 6.07349 7.49512 5.33962 7.49512C4.60578 7.49512 4.01087 8.11006 4.01087 8.86862C4.01087 9.6272 4.60578 10.2421 5.33962 10.2421Z" fill="#323245"/>
<path d="M10.5681 8.18648C10.5681 8.98523 9.94171 9.6328 9.16896 9.6328C8.39622 9.6328 7.7698 8.98523 7.7698 8.18648C7.7698 7.38773 8.39622 6.74024 9.16896 6.74024C9.94171 6.74024 10.5681 7.38773 10.5681 8.18648Z" fill="#323245"/>
<path d="M3.75619 13.4707C4.49491 13.4707 5.09377 12.8515 5.09377 12.088C5.09377 11.3245 4.49491 10.7053 3.75619 10.7053C3.01748 10.7053 2.41862 11.3245 2.41862 12.088C2.41862 12.8515 3.01748 13.4707 3.75619 13.4707Z" fill="#323245"/>
<path d="M8.82522 11.7613C8.82522 12.4896 8.25397 13.0803 7.54926 13.0803C6.84457 13.0803 6.27328 12.4896 6.27328 11.7613C6.27328 11.0328 6.84457 10.4424 7.54926 10.4424C8.25397 10.4424 8.82522 11.0328 8.82522 11.7613Z" fill="#323245"/>
<path d="M11.3678 12.5614C11.9801 12.5614 12.4764 12.0483 12.4764 11.4152C12.4764 10.7824 11.9801 10.2694 11.3678 10.2694C10.7554 10.2694 10.259 10.7824 10.259 11.4152C10.259 12.0483 10.7554 12.5614 11.3678 12.5614Z" fill="#323245"/>
<path d="M10.8566 14.9987C10.8566 15.6315 10.3601 16.1448 9.74776 16.1448C9.13541 16.1448 8.63899 15.6315 8.63899 14.9987C8.63899 14.3656 9.13541 13.8525 9.74776 13.8525C10.3601 13.8525 10.8566 14.3656 10.8566 14.9987Z" fill="#323245"/>
<path d="M5.93088 16.4907C6.54326 16.4907 7.03968 15.9776 7.03968 15.3445C7.03968 14.7117 6.54326 14.1987 5.93088 14.1987C5.31853 14.1987 4.82211 14.7117 4.82211 15.3445C4.82211 15.9776 5.31853 16.4907 5.93088 16.4907Z" fill="#323245"/>
<path d="M5.58785 18.9011C5.58785 19.6243 5.02054 20.2107 4.32068 20.2107C3.62084 20.2107 3.0535 19.6243 3.0535 18.9011C3.0535 18.1776 3.62084 17.5912 4.32068 17.5912C5.02054 17.5912 5.58785 18.1776 5.58785 18.9011Z" fill="#323245"/>
<path d="M2.71106 23.64C3.33314 23.64 3.83745 23.1189 3.83745 22.4757C3.83745 21.8328 3.33314 21.3115 2.71106 21.3115C2.08898 21.3115 1.5847 21.8328 1.5847 22.4757C1.5847 23.1189 2.08898 23.64 2.71106 23.64Z" fill="#323245"/>
<path d="M15.3809 21.4395C15.3809 22.1579 14.8175 22.74 14.1225 22.74C13.4275 22.74 12.864 22.1579 12.864 21.4395C12.864 20.7211 13.4275 20.1387 14.1225 20.1387C14.8175 20.1387 15.3809 20.7211 15.3809 21.4395Z" fill="#323245"/>
<path d="M11.914 19.5376C12.614 19.5376 13.1813 18.9512 13.1813 18.2278C13.1813 17.5043 12.614 16.9179 11.914 16.9179C11.2143 16.9179 10.6469 17.5043 10.6469 18.2278C10.6469 18.9512 11.2143 19.5376 11.914 19.5376Z" fill="#323245"/>
<path d="M6.15975 25.7326C6.15975 26.456 5.59244 27.0424 4.89258 27.0424C4.19274 27.0424 3.6254 26.456 3.6254 25.7326C3.6254 25.0093 4.19274 24.4229 4.89258 24.4229C5.59244 24.4229 6.15975 25.0093 6.15975 25.7326Z" fill="#323245"/>
<path d="M2.10301 16.6552C2.62303 16.6552 3.04458 16.2194 3.04458 15.6818C3.04458 15.1445 2.62303 14.7085 2.10301 14.7085C1.58299 14.7085 1.16144 15.1445 1.16144 15.6818C1.16144 16.2194 1.58299 16.6552 2.10301 16.6552Z" fill="#323245"/>
<path d="M14.5027 14.6446C14.5027 15.1822 14.0811 15.6179 13.5613 15.6179C13.0412 15.6179 12.6196 15.1822 12.6196 14.6446C12.6196 14.107 13.0412 13.6712 13.5613 13.6712C14.0811 13.6712 14.5027 14.107 14.5027 14.6446Z" fill="#323245"/>
<path d="M3.17533 6.73073C3.94807 6.73073 4.57451 6.08321 4.57451 5.28449C4.57451 4.48574 3.94807 3.83822 3.17533 3.83822C2.40259 3.83822 1.77617 4.48574 1.77617 5.28449C1.77617 6.08321 2.40259 6.73073 3.17533 6.73073Z" fill="#323245"/>
<path d="M36.4544 19.8203C36.7557 19.8203 37 19.5678 37 19.2563C37 18.9448 36.7557 18.6923 36.4544 18.6923C36.153 18.6923 35.9087 18.9448 35.9087 19.2563C35.9087 19.5678 36.153 19.8203 36.4544 19.8203Z" fill="#323245"/>
<path d="M29.409 18.5744C29.409 18.8859 29.1647 19.1384 28.8633 19.1384C28.562 19.1384 28.318 18.8859 28.318 18.5744C28.318 18.263 28.562 18.0104 28.8633 18.0104C29.1647 18.0104 29.409 18.263 29.409 18.5744Z" fill="#323245"/>
<path d="M26.6817 22.3669C26.983 22.3669 27.2273 22.1144 27.2273 21.8029C27.2273 21.4915 26.983 21.2389 26.6817 21.2389C26.3804 21.2389 26.1363 21.4915 26.1363 21.8029C26.1363 22.1144 26.3804 22.3669 26.6817 22.3669Z" fill="#323245"/>
<path d="M20.7575 19.4379C20.7575 19.7493 20.5132 20.0019 20.2118 20.0019C19.9105 20.0019 19.6662 19.7493 19.6662 19.4379C19.6662 19.1264 19.9105 18.8741 20.2118 18.8741C20.5132 18.8741 20.7575 19.1264 20.7575 19.4379Z" fill="#323245"/>
<path d="M36.0161 2.61943C36.3175 2.61943 36.5618 2.36692 36.5618 2.05548C36.5618 1.74402 36.3175 1.49154 36.0161 1.49154C35.7148 1.49154 35.4705 1.74402 35.4705 2.05548C35.4705 2.36692 35.7148 2.61943 36.0161 2.61943Z" fill="#323245"/>
<path d="M36.2909 8.87809C36.2909 9.36028 35.9127 9.75121 35.4462 9.75121C34.9795 9.75121 34.6013 9.36028 34.6013 8.87809C34.6013 8.39585 34.9795 8.00489 35.4462 8.00489C35.9127 8.00489 36.2909 8.39585 36.2909 8.87809Z" fill="#323245"/>
<path d="M21.7183 17.9371C22.1071 17.9371 22.4223 17.6112 22.4223 17.2093C22.4223 16.8075 22.1071 16.4819 21.7183 16.4819C21.3295 16.4819 21.0142 16.8075 21.0142 17.2093C21.0142 17.6112 21.3295 17.9371 21.7183 17.9371Z" fill="#323245"/>
<path d="M36.6064 26.0782C36.6064 26.4803 36.2911 26.8059 35.9024 26.8059C35.5136 26.8059 35.1986 26.4803 35.1986 26.0782C35.1986 25.6763 35.5136 25.3507 35.9024 25.3507C36.2911 25.3507 36.6064 25.6763 36.6064 26.0782Z" fill="#323245"/>
<path d="M30.4831 22.9398C30.9109 22.9398 31.2576 22.5814 31.2576 22.1392C31.2576 21.6974 30.9109 21.339 30.4831 21.339C30.0554 21.339 29.7087 21.6974 29.7087 22.1392C29.7087 22.5814 30.0554 22.9398 30.4831 22.9398Z" fill="#323245"/>
<path d="M23.0718 28.2616C23.0718 28.7038 22.7251 29.0622 22.2974 29.0622C21.8699 29.0622 21.5232 28.7038 21.5232 28.2616C21.5232 27.8198 21.8699 27.4614 22.2974 27.4614C22.7251 27.4614 23.0718 27.8198 23.0718 28.2616Z" fill="#323245"/>
<path d="M24.4898 25.6685C24.8298 25.6685 25.1056 25.3835 25.1056 25.032C25.1056 24.6803 24.8298 24.3952 24.4898 24.3952C24.1495 24.3952 23.8737 24.6803 23.8737 25.032C23.8737 25.3835 24.1495 25.6685 24.4898 25.6685Z" fill="#323245"/>
<path d="M34.6252 29.3251C34.6252 29.8525 34.2114 30.2803 33.7011 30.2803C33.1908 30.2803 32.7773 29.8525 32.7773 29.3251C32.7773 28.7976 33.1908 28.3701 33.7011 28.3701C34.2114 28.3701 34.6252 28.7976 34.6252 29.3251Z" fill="#323245"/>
<path d="M30.017 6.64017C30.7995 6.64017 31.4338 5.98452 31.4338 5.17572C31.4338 4.36692 30.7995 3.71127 30.017 3.71127C29.2345 3.71127 28.6001 4.36692 28.6001 5.17572C28.6001 5.98452 29.2345 6.64017 30.017 6.64017Z" fill="#323245"/>
<path d="M33.7737 1.60088C33.7737 2.48501 33.0803 3.20176 32.225 3.20176C31.3696 3.20176 30.6761 2.48501 30.6761 1.60088C30.6761 0.716747 31.3696 0 32.225 0C33.0803 0 33.7737 0.716747 33.7737 1.60088Z" fill="#323245"/>
<path d="M31.6523 10.2421C32.386 10.2421 32.9809 9.6272 32.9809 8.86862C32.9809 8.11006 32.386 7.49512 31.6523 7.49512C30.9183 7.49512 30.3234 8.11006 30.3234 8.86862C30.3234 9.6272 30.9183 10.2421 31.6523 10.2421Z" fill="#323245"/>
<path d="M29.2318 8.18648C29.2318 8.98523 28.6054 9.6328 27.8325 9.6328C27.0598 9.6328 26.4334 8.98523 26.4334 8.18648C26.4334 7.38773 27.0598 6.74024 27.8325 6.74024C28.6054 6.74024 29.2318 7.38773 29.2318 8.18648Z" fill="#323245"/>
<path d="M33.2382 13.4707C33.9768 13.4707 34.5758 12.8515 34.5758 12.088C34.5758 11.3245 33.9768 10.7053 33.2382 10.7053C32.4996 10.7053 31.9005 11.3245 31.9005 12.088C31.9005 12.8515 32.4996 13.4707 33.2382 13.4707Z" fill="#323245"/>
<path d="M30.7289 11.7613C30.7289 12.4896 30.1574 13.0803 29.4529 13.0803C28.7481 13.0803 28.1769 12.4896 28.1769 11.7613C28.1769 11.0328 28.7481 10.4424 29.4529 10.4424C30.1574 10.4424 30.7289 11.0328 30.7289 11.7613Z" fill="#323245"/>
<path d="M25.6325 12.5614C26.2449 12.5614 26.7413 12.0483 26.7413 11.4152C26.7413 10.7824 26.2449 10.2694 25.6325 10.2694C25.0203 10.2694 24.5239 10.7824 24.5239 11.4152C24.5239 12.0483 25.0203 12.5614 25.6325 12.5614Z" fill="#323245"/>
<path d="M28.3537 14.9987C28.3537 15.6315 27.8573 16.1448 27.2449 16.1448C26.6327 16.1448 26.1363 15.6315 26.1363 14.9987C26.1363 14.3656 26.6327 13.8525 27.2449 13.8525C27.8573 13.8525 28.3537 14.3656 28.3537 14.9987Z" fill="#323245"/>
<path d="M31.0718 16.4907C31.6843 16.4907 32.1807 15.9776 32.1807 15.3445C32.1807 14.7117 31.6843 14.1987 31.0718 14.1987C30.4596 14.1987 29.9633 14.7117 29.9633 15.3445C29.9633 15.9776 30.4596 16.4907 31.0718 16.4907Z" fill="#323245"/>
<path d="M33.9386 18.9011C33.9386 19.6243 33.3712 20.2107 32.6713 20.2107C31.9717 20.2107 31.4044 19.6243 31.4044 18.9011C31.4044 18.1776 31.9717 17.5912 32.6713 17.5912C33.3712 17.5912 33.9386 18.1776 33.9386 18.9011Z" fill="#323245"/>
<path d="M34.2815 23.64C34.9036 23.64 35.4079 23.1189 35.4079 22.4757C35.4079 21.8328 34.9036 21.3115 34.2815 21.3115C33.6593 21.3115 33.1552 21.8328 33.1552 22.4757C33.1552 23.1189 33.6593 23.64 34.2815 23.64Z" fill="#323245"/>
<path d="M24.1281 21.4395C24.1281 22.1579 23.5647 22.74 22.8697 22.74C22.1747 22.74 21.6115 22.1579 21.6115 21.4395C21.6115 20.7211 22.1747 20.1387 22.8697 20.1387C23.5647 20.1387 24.1281 20.7211 24.1281 21.4395Z" fill="#323245"/>
<path d="M25.078 19.5376C25.7776 19.5376 26.3452 18.9512 26.3452 18.2278C26.3452 17.5043 25.7776 16.9179 25.078 16.9179C24.3781 16.9179 23.8108 17.5043 23.8108 18.2278C23.8108 18.9512 24.3781 19.5376 25.078 19.5376Z" fill="#323245"/>
<path d="M33.3766 25.7326C33.3766 26.456 32.8093 27.0424 32.1096 27.0424C31.4097 27.0424 30.8424 26.456 30.8424 25.7326C30.8424 25.0093 31.4097 24.4229 32.1096 24.4229C32.8093 24.4229 33.3766 25.0093 33.3766 25.7326Z" fill="#323245"/>
<path d="M34.8904 16.6552C35.4103 16.6552 35.8318 16.2194 35.8318 15.6818C35.8318 15.1445 35.4103 14.7085 34.8904 14.7085C34.3703 14.7085 33.9488 15.1445 33.9488 15.6818C33.9488 16.2194 34.3703 16.6552 34.8904 16.6552Z" fill="#323245"/>
<path d="M24.3837 14.6446C24.3837 15.1822 23.9622 15.6179 23.4423 15.6179C22.9222 15.6179 22.5007 15.1822 22.5007 14.6446C22.5007 14.107 22.9222 13.6712 23.4423 13.6712C23.9622 13.6712 24.3837 14.107 24.3837 14.6446Z" fill="#323245"/>
<path d="M33.8238 6.73073C34.5964 6.73073 35.2228 6.08321 35.2228 5.28449C35.2228 4.48574 34.5964 3.83822 33.8238 3.83822C33.0511 3.83822 32.4247 4.48574 32.4247 5.28449C32.4247 6.08321 33.0511 6.73073 33.8238 6.73073Z" fill="#323245"/>
<path d="M18.4977 22.9034C19.1101 22.9034 19.6065 22.3904 19.6065 21.7573C19.6065 21.1245 19.1101 20.6112 18.4977 20.6112C17.8855 20.6112 17.3888 21.1245 17.3888 21.7573C17.3888 22.3904 17.8855 22.9034 18.4977 22.9034Z" fill="#323245"/>
<path d="M19.6065 28.0064C19.6065 28.6395 19.1101 29.1526 18.4977 29.1526C17.8855 29.1526 17.3888 28.6395 17.3888 28.0064C17.3888 27.3736 17.8855 26.8603 18.4977 26.8603C19.1101 26.8603 19.6065 27.3736 19.6065 28.0064Z" fill="#323245"/>
<path d="M16.3058 25.832C16.9182 25.832 17.4146 25.3187 17.4146 24.6859C17.4146 24.0528 16.9182 23.5397 16.3058 23.5397C15.6933 23.5397 15.197 24.0528 15.197 24.6859C15.197 25.3187 15.6933 25.832 16.3058 25.832Z" fill="#323245"/>
<path d="M21.7956 24.6859C21.7956 25.3187 21.2992 25.832 20.6868 25.832C20.0746 25.832 19.5782 25.3187 19.5782 24.6859C19.5782 24.0528 20.0746 23.5397 20.6868 23.5397C21.2992 23.5397 21.7956 24.0528 21.7956 24.6859Z" fill="#323245"/>
<path d="M16.8839 32C17.1465 32 17.3591 31.78 17.3591 31.5088C17.3591 31.2376 17.1465 31.0176 16.8839 31.0176C16.6215 31.0176 16.4089 31.2376 16.4089 31.5088C16.4089 31.78 16.6215 32 16.8839 32Z" fill="#323245"/>
<path d="M20.5916 31.5088C20.5916 31.78 20.3787 32 20.1164 32C19.8537 32 19.6412 31.78 19.6412 31.5088C19.6412 31.2376 19.8537 31.0176 20.1164 31.0176C20.3787 31.0176 20.5916 31.2376 20.5916 31.5088Z" fill="#323245"/>
<path d="M6.31731 1.60088C6.31731 2.48501 5.6239 3.20176 4.76855 3.20176C3.91317 3.20176 3.21978 2.48501 3.21978 1.60088C3.21978 0.716747 3.91317 0 4.76855 0C5.6239 0 6.31731 0.716747 6.31731 1.60088Z" stroke="#323245" stroke-width="2" mask="url(#path-1-inside-1_301_119)"/>
<path d="M0.983962 2.61943C1.28529 2.61943 1.52955 2.36692 1.52955 2.05548C1.52955 1.74402 1.28529 1.49154 0.983962 1.49154C0.682636 1.49154 0.438374 1.74402 0.438374 2.05548C0.438374 2.36692 0.682636 2.61943 0.983962 2.61943Z" stroke="#323245" stroke-width="2" mask="url(#path-1-inside-1_301_119)"/>
<path d="M8.67706 18.5744C8.67706 18.8859 8.4328 19.1384 8.13147 19.1384C7.83015 19.1384 7.58589 18.8859 7.58589 18.5744C7.58589 18.263 7.83015 18.0104 8.13147 18.0104C8.4328 18.0104 8.67706 18.263 8.67706 18.5744Z" stroke="#323245" stroke-width="2" mask="url(#path-1-inside-1_301_119)"/>
<path d="M1.09118 19.2563C1.09118 19.5678 0.846915 19.8203 0.545588 19.8203C0.244262 19.8203 0 19.5678 0 19.2563C0 18.9448 0.244262 18.6923 0.545588 18.6923C0.846915 18.6923 1.09118 18.9448 1.09118 19.2563Z" stroke="#323245" stroke-width="2" mask="url(#path-1-inside-1_301_119)"/>
<path d="M10.3233 22.3669C10.6247 22.3669 10.8689 22.1144 10.8689 21.8029C10.8689 21.4915 10.6247 21.2389 10.3233 21.2389C10.022 21.2389 9.77776 21.4915 9.77776 21.8029C9.77776 22.1144 10.022 22.3669 10.3233 22.3669Z" stroke="#323245" stroke-width="2" mask="url(#path-1-inside-1_301_119)"/>
<path d="M17.3338 19.4379C17.3338 19.7493 17.0895 20.0019 16.7882 20.0019C16.4868 20.0019 16.2425 19.7493 16.2425 19.4379C16.2425 19.1264 16.4868 18.8741 16.7882 18.8741C17.0895 18.8741 17.3338 19.1264 17.3338 19.4379Z" stroke="#323245" stroke-width="2" mask="url(#path-1-inside-1_301_119)"/>
<path d="M2.40004 8.87809C2.40004 9.36028 2.02181 9.75121 1.55524 9.75121C1.0887 9.75121 0.710468 9.36028 0.710468 8.87809C0.710468 8.39585 1.0887 8.00489 1.55524 8.00489C2.02181 8.00489 2.40004 8.39585 2.40004 8.87809Z" stroke="#323245" stroke-width="2" mask="url(#path-1-inside-1_301_119)"/>
<path d="M15.2835 17.9371C15.6725 17.9371 15.9875 17.6112 15.9875 17.2093C15.9875 16.8075 15.6725 16.4819 15.2835 16.4819C14.8947 16.4819 14.5797 16.8075 14.5797 17.2093C14.5797 17.6112 14.8947 17.9371 15.2835 17.9371Z" stroke="#323245" stroke-width="2" mask="url(#path-1-inside-1_301_119)"/>
<path d="M1.79345 26.0782C1.79345 26.4803 1.47827 26.8059 1.08946 26.8059C0.700674 26.8059 0.385467 26.4803 0.385467 26.0782C0.385467 25.6763 0.700674 25.3507 1.08946 25.3507C1.47827 25.3507 1.79345 25.6763 1.79345 26.0782Z" stroke="#323245" stroke-width="2" mask="url(#path-1-inside-1_301_119)"/>
<path d="M6.5085 22.9398C6.93619 22.9398 7.2829 22.5814 7.2829 22.1392C7.2829 21.6974 6.93619 21.339 6.5085 21.339C6.08084 21.339 5.73413 21.6974 5.73413 22.1392C5.73413 22.5814 6.08084 22.9398 6.5085 22.9398Z" stroke="#323245" stroke-width="2" mask="url(#path-1-inside-1_301_119)"/>
<path d="M15.4761 28.2616C15.4761 28.7038 15.1294 29.0622 14.7017 29.0622C14.2739 29.0622 13.9272 28.7038 13.9272 28.2616C13.9272 27.8198 14.2739 27.4614 14.7017 27.4614C15.1294 27.4614 15.4761 27.8198 15.4761 28.2616Z" stroke="#323245" stroke-width="2" mask="url(#path-1-inside-1_301_119)"/>
<path d="M12.5026 25.6685C12.8428 25.6685 13.1186 25.3835 13.1186 25.032C13.1186 24.6803 12.8428 24.3952 12.5026 24.3952C12.1623 24.3952 11.8865 24.6803 11.8865 25.032C11.8865 25.3835 12.1623 25.6685 12.5026 25.6685Z" stroke="#323245" stroke-width="2" mask="url(#path-1-inside-1_301_119)"/>
<path d="M4.21368 29.3251C4.21368 29.8525 3.80001 30.2803 3.28968 30.2803C2.77939 30.2803 2.36571 29.8525 2.36571 29.3251C2.36571 28.7976 2.77939 28.3701 3.28968 28.3701C3.80001 28.3701 4.21368 28.7976 4.21368 29.3251Z" stroke="#323245" stroke-width="2" mask="url(#path-1-inside-1_301_119)"/>
<path d="M6.97707 6.64017C7.75955 6.64017 8.39385 5.98452 8.39385 5.17572C8.39385 4.36692 7.75955 3.71127 6.97707 3.71127C6.1946 3.71127 5.5603 4.36692 5.5603 5.17572C5.5603 5.98452 6.1946 6.64017 6.97707 6.64017Z" stroke="#323245" stroke-width="2" mask="url(#path-1-inside-1_301_119)"/>
<path d="M5.33962 10.2421C6.07349 10.2421 6.6684 9.6272 6.6684 8.86862C6.6684 8.11006 6.07349 7.49512 5.33962 7.49512C4.60578 7.49512 4.01087 8.11006 4.01087 8.86862C4.01087 9.6272 4.60578 10.2421 5.33962 10.2421Z" stroke="#323245" stroke-width="2" mask="url(#path-1-inside-1_301_119)"/>
<path d="M10.5681 8.18648C10.5681 8.98523 9.94171 9.6328 9.16896 9.6328C8.39622 9.6328 7.7698 8.98523 7.7698 8.18648C7.7698 7.38773 8.39622 6.74024 9.16896 6.74024C9.94171 6.74024 10.5681 7.38773 10.5681 8.18648Z" stroke="#323245" stroke-width="2" mask="url(#path-1-inside-1_301_119)"/>
<path d="M3.75619 13.4707C4.49491 13.4707 5.09377 12.8515 5.09377 12.088C5.09377 11.3245 4.49491 10.7053 3.75619 10.7053C3.01748 10.7053 2.41862 11.3245 2.41862 12.088C2.41862 12.8515 3.01748 13.4707 3.75619 13.4707Z" stroke="#323245" stroke-width="2" mask="url(#path-1-inside-1_301_119)"/>
<path d="M8.82522 11.7613C8.82522 12.4896 8.25397 13.0803 7.54926 13.0803C6.84457 13.0803 6.27328 12.4896 6.27328 11.7613C6.27328 11.0328 6.84457 10.4424 7.54926 10.4424C8.25397 10.4424 8.82522 11.0328 8.82522 11.7613Z" stroke="#323245" stroke-width="2" mask="url(#path-1-inside-1_301_119)"/>
<path d="M11.3678 12.5614C11.9801 12.5614 12.4764 12.0483 12.4764 11.4152C12.4764 10.7824 11.9801 10.2694 11.3678 10.2694C10.7554 10.2694 10.259 10.7824 10.259 11.4152C10.259 12.0483 10.7554 12.5614 11.3678 12.5614Z" stroke="#323245" stroke-width="2" mask="url(#path-1-inside-1_301_119)"/>
<path d="M10.8566 14.9987C10.8566 15.6315 10.3601 16.1448 9.74776 16.1448C9.13541 16.1448 8.63899 15.6315 8.63899 14.9987C8.63899 14.3656 9.13541 13.8525 9.74776 13.8525C10.3601 13.8525 10.8566 14.3656 10.8566 14.9987Z" stroke="#323245" stroke-width="2" mask="url(#path-1-inside-1_301_119)"/>
<path d="M5.93088 16.4907C6.54326 16.4907 7.03968 15.9776 7.03968 15.3445C7.03968 14.7117 6.54326 14.1987 5.93088 14.1987C5.31853 14.1987 4.82211 14.7117 4.82211 15.3445C4.82211 15.9776 5.31853 16.4907 5.93088 16.4907Z" stroke="#323245" stroke-width="2" mask="url(#path-1-inside-1_301_119)"/>
<path d="M5.58785 18.9011C5.58785 19.6243 5.02054 20.2107 4.32068 20.2107C3.62084 20.2107 3.0535 19.6243 3.0535 18.9011C3.0535 18.1776 3.62084 17.5912 4.32068 17.5912C5.02054 17.5912 5.58785 18.1776 5.58785 18.9011Z" stroke="#323245" stroke-width="2" mask="url(#path-1-inside-1_301_119)"/>
<path d="M2.71106 23.64C3.33314 23.64 3.83745 23.1189 3.83745 22.4757C3.83745 21.8328 3.33314 21.3115 2.71106 21.3115C2.08898 21.3115 1.5847 21.8328 1.5847 22.4757C1.5847 23.1189 2.08898 23.64 2.71106 23.64Z" stroke="#323245" stroke-width="2" mask="url(#path-1-inside-1_301_119)"/>
<path d="M15.3809 21.4395C15.3809 22.1579 14.8175 22.74 14.1225 22.74C13.4275 22.74 12.864 22.1579 12.864 21.4395C12.864 20.7211 13.4275 20.1387 14.1225 20.1387C14.8175 20.1387 15.3809 20.7211 15.3809 21.4395Z" stroke="#323245" stroke-width="2" mask="url(#path-1-inside-1_301_119)"/>
<path d="M11.914 19.5376C12.614 19.5376 13.1813 18.9512 13.1813 18.2278C13.1813 17.5043 12.614 16.9179 11.914 16.9179C11.2143 16.9179 10.6469 17.5043 10.6469 18.2278C10.6469 18.9512 11.2143 19.5376 11.914 19.5376Z" stroke="#323245" stroke-width="2" mask="url(#path-1-inside-1_301_119)"/>
<path d="M6.15975 25.7326C6.15975 26.456 5.59244 27.0424 4.89258 27.0424C4.19274 27.0424 3.6254 26.456 3.6254 25.7326C3.6254 25.0093 4.19274 24.4229 4.89258 24.4229C5.59244 24.4229 6.15975 25.0093 6.15975 25.7326Z" stroke="#323245" stroke-width="2" mask="url(#path-1-inside-1_301_119)"/>
<path d="M2.10301 16.6552C2.62303 16.6552 3.04458 16.2194 3.04458 15.6818C3.04458 15.1445 2.62303 14.7085 2.10301 14.7085C1.58299 14.7085 1.16144 15.1445 1.16144 15.6818C1.16144 16.2194 1.58299 16.6552 2.10301 16.6552Z" stroke="#323245" stroke-width="2" mask="url(#path-1-inside-1_301_119)"/>
<path d="M14.5027 14.6446C14.5027 15.1822 14.0811 15.6179 13.5613 15.6179C13.0412 15.6179 12.6196 15.1822 12.6196 14.6446C12.6196 14.107 13.0412 13.6712 13.5613 13.6712C14.0811 13.6712 14.5027 14.107 14.5027 14.6446Z" stroke="#323245" stroke-width="2" mask="url(#path-1-inside-1_301_119)"/>
<path d="M3.17533 6.73073C3.94807 6.73073 4.57451 6.08321 4.57451 5.28449C4.57451 4.48574 3.94807 3.83822 3.17533 3.83822C2.40259 3.83822 1.77617 4.48574 1.77617 5.28449C1.77617 6.08321 2.40259 6.73073 3.17533 6.73073Z" stroke="#323245" stroke-width="2" mask="url(#path-1-inside-1_301_119)"/>
<path d="M36.4544 19.8203C36.7557 19.8203 37 19.5678 37 19.2563C37 18.9448 36.7557 18.6923 36.4544 18.6923C36.153 18.6923 35.9087 18.9448 35.9087 19.2563C35.9087 19.5678 36.153 19.8203 36.4544 19.8203Z" stroke="#323245" stroke-width="2" mask="url(#path-1-inside-1_301_119)"/>
<path d="M29.409 18.5744C29.409 18.8859 29.1647 19.1384 28.8633 19.1384C28.562 19.1384 28.318 18.8859 28.318 18.5744C28.318 18.263 28.562 18.0104 28.8633 18.0104C29.1647 18.0104 29.409 18.263 29.409 18.5744Z" stroke="#323245" stroke-width="2" mask="url(#path-1-inside-1_301_119)"/>
<path d="M26.6817 22.3669C26.983 22.3669 27.2273 22.1144 27.2273 21.8029C27.2273 21.4915 26.983 21.2389 26.6817 21.2389C26.3804 21.2389 26.1363 21.4915 26.1363 21.8029C26.1363 22.1144 26.3804 22.3669 26.6817 22.3669Z" stroke="#323245" stroke-width="2" mask="url(#path-1-inside-1_301_119)"/>
<path d="M20.7575 19.4379C20.7575 19.7493 20.5132 20.0019 20.2118 20.0019C19.9105 20.0019 19.6662 19.7493 19.6662 19.4379C19.6662 19.1264 19.9105 18.8741 20.2118 18.8741C20.5132 18.8741 20.7575 19.1264 20.7575 19.4379Z" stroke="#323245" stroke-width="2" mask="url(#path-1-inside-1_301_119)"/>
<path d="M36.0161 2.61943C36.3175 2.61943 36.5618 2.36692 36.5618 2.05548C36.5618 1.74402 36.3175 1.49154 36.0161 1.49154C35.7148 1.49154 35.4705 1.74402 35.4705 2.05548C35.4705 2.36692 35.7148 2.61943 36.0161 2.61943Z" stroke="#323245" stroke-width="2" mask="url(#path-1-inside-1_301_119)"/>
<path d="M36.2909 8.87809C36.2909 9.36028 35.9127 9.75121 35.4462 9.75121C34.9795 9.75121 34.6013 9.36028 34.6013 8.87809C34.6013 8.39585 34.9795 8.00489 35.4462 8.00489C35.9127 8.00489 36.2909 8.39585 36.2909 8.87809Z" stroke="#323245" stroke-width="2" mask="url(#path-1-inside-1_301_119)"/>
<path d="M21.7183 17.9371C22.1071 17.9371 22.4223 17.6112 22.4223 17.2093C22.4223 16.8075 22.1071 16.4819 21.7183 16.4819C21.3295 16.4819 21.0142 16.8075 21.0142 17.2093C21.0142 17.6112 21.3295 17.9371 21.7183 17.9371Z" stroke="#323245" stroke-width="2" mask="url(#path-1-inside-1_301_119)"/>
<path d="M36.6064 26.0782C36.6064 26.4803 36.2911 26.8059 35.9024 26.8059C35.5136 26.8059 35.1986 26.4803 35.1986 26.0782C35.1986 25.6763 35.5136 25.3507 35.9024 25.3507C36.2911 25.3507 36.6064 25.6763 36.6064 26.0782Z" stroke="#323245" stroke-width="2" mask="url(#path-1-inside-1_301_119)"/>
<path d="M30.4831 22.9398C30.9109 22.9398 31.2576 22.5814 31.2576 22.1392C31.2576 21.6974 30.9109 21.339 30.4831 21.339C30.0554 21.339 29.7087 21.6974 29.7087 22.1392C29.7087 22.5814 30.0554 22.9398 30.4831 22.9398Z" stroke="#323245" stroke-width="2" mask="url(#path-1-inside-1_301_119)"/>
<path d="M23.0718 28.2616C23.0718 28.7038 22.7251 29.0622 22.2974 29.0622C21.8699 29.0622 21.5232 28.7038 21.5232 28.2616C21.5232 27.8198 21.8699 27.4614 22.2974 27.4614C22.7251 27.4614 23.0718 27.8198 23.0718 28.2616Z" stroke="#323245" stroke-width="2" mask="url(#path-1-inside-1_301_119)"/>
<path d="M24.4898 25.6685C24.8298 25.6685 25.1056 25.3835 25.1056 25.032C25.1056 24.6803 24.8298 24.3952 24.4898 24.3952C24.1495 24.3952 23.8737 24.6803 23.8737 25.032C23.8737 25.3835 24.1495 25.6685 24.4898 25.6685Z" stroke="#323245" stroke-width="2" mask="url(#path-1-inside-1_301_119)"/>
<path d="M34.6252 29.3251C34.6252 29.8525 34.2114 30.2803 33.7011 30.2803C33.1908 30.2803 32.7773 29.8525 32.7773 29.3251C32.7773 28.7976 33.1908 28.3701 33.7011 28.3701C34.2114 28.3701 34.6252 28.7976 34.6252 29.3251Z" stroke="#323245" stroke-width="2" mask="url(#path-1-inside-1_301_119)"/>
<path d="M30.017 6.64017C30.7995 6.64017 31.4338 5.98452 31.4338 5.17572C31.4338 4.36692 30.7995 3.71127 30.017 3.71127C29.2345 3.71127 28.6001 4.36692 28.6001 5.17572C28.6001 5.98452 29.2345 6.64017 30.017 6.64017Z" stroke="#323245" stroke-width="2" mask="url(#path-1-inside-1_301_119)"/>
<path d="M33.7737 1.60088C33.7737 2.48501 33.0803 3.20176 32.225 3.20176C31.3696 3.20176 30.6761 2.48501 30.6761 1.60088C30.6761 0.716747 31.3696 0 32.225 0C33.0803 0 33.7737 0.716747 33.7737 1.60088Z" stroke="#323245" stroke-width="2" mask="url(#path-1-inside-1_301_119)"/>
<path d="M31.6523 10.2421C32.386 10.2421 32.9809 9.6272 32.9809 8.86862C32.9809 8.11006 32.386 7.49512 31.6523 7.49512C30.9183 7.49512 30.3234 8.11006 30.3234 8.86862C30.3234 9.6272 30.9183 10.2421 31.6523 10.2421Z" stroke="#323245" stroke-width="2" mask="url(#path-1-inside-1_301_119)"/>
<path d="M29.2318 8.18648C29.2318 8.98523 28.6054 9.6328 27.8325 9.6328C27.0598 9.6328 26.4334 8.98523 26.4334 8.18648C26.4334 7.38773 27.0598 6.74024 27.8325 6.74024C28.6054 6.74024 29.2318 7.38773 29.2318 8.18648Z" stroke="#323245" stroke-width="2" mask="url(#path-1-inside-1_301_119)"/>
<path d="M33.2382 13.4707C33.9768 13.4707 34.5758 12.8515 34.5758 12.088C34.5758 11.3245 33.9768 10.7053 33.2382 10.7053C32.4996 10.7053 31.9005 11.3245 31.9005 12.088C31.9005 12.8515 32.4996 13.4707 33.2382 13.4707Z" stroke="#323245" stroke-width="2" mask="url(#path-1-inside-1_301_119)"/>
<path d="M30.7289 11.7613C30.7289 12.4896 30.1574 13.0803 29.4529 13.0803C28.7481 13.0803 28.1769 12.4896 28.1769 11.7613C28.1769 11.0328 28.7481 10.4424 29.4529 10.4424C30.1574 10.4424 30.7289 11.0328 30.7289 11.7613Z" stroke="#323245" stroke-width="2" mask="url(#path-1-inside-1_301_119)"/>
<path d="M25.6325 12.5614C26.2449 12.5614 26.7413 12.0483 26.7413 11.4152C26.7413 10.7824 26.2449 10.2694 25.6325 10.2694C25.0203 10.2694 24.5239 10.7824 24.5239 11.4152C24.5239 12.0483 25.0203 12.5614 25.6325 12.5614Z" stroke="#323245" stroke-width="2" mask="url(#path-1-inside-1_301_119)"/>
<path d="M28.3537 14.9987C28.3537 15.6315 27.8573 16.1448 27.2449 16.1448C26.6327 16.1448 26.1363 15.6315 26.1363 14.9987C26.1363 14.3656 26.6327 13.8525 27.2449 13.8525C27.8573 13.8525 28.3537 14.3656 28.3537 14.9987Z" stroke="#323245" stroke-width="2" mask="url(#path-1-inside-1_301_119)"/>
<path d="M31.0718 16.4907C31.6843 16.4907 32.1807 15.9776 32.1807 15.3445C32.1807 14.7117 31.6843 14.1987 31.0718 14.1987C30.4596 14.1987 29.9633 14.7117 29.9633 15.3445C29.9633 15.9776 30.4596 16.4907 31.0718 16.4907Z" stroke="#323245" stroke-width="2" mask="url(#path-1-inside-1_301_119)"/>
<path d="M33.9386 18.9011C33.9386 19.6243 33.3712 20.2107 32.6713 20.2107C31.9717 20.2107 31.4044 19.6243 31.4044 18.9011C31.4044 18.1776 31.9717 17.5912 32.6713 17.5912C33.3712 17.5912 33.9386 18.1776 33.9386 18.9011Z" stroke="#323245" stroke-width="2" mask="url(#path-1-inside-1_301_119)"/>
<path d="M34.2815 23.64C34.9036 23.64 35.4079 23.1189 35.4079 22.4757C35.4079 21.8328 34.9036 21.3115 34.2815 21.3115C33.6593 21.3115 33.1552 21.8328 33.1552 22.4757C33.1552 23.1189 33.6593 23.64 34.2815 23.64Z" stroke="#323245" stroke-width="2" mask="url(#path-1-inside-1_301_119)"/>
<path d="M24.1281 21.4395C24.1281 22.1579 23.5647 22.74 22.8697 22.74C22.1747 22.74 21.6115 22.1579 21.6115 21.4395C21.6115 20.7211 22.1747 20.1387 22.8697 20.1387C23.5647 20.1387 24.1281 20.7211 24.1281 21.4395Z" stroke="#323245" stroke-width="2" mask="url(#path-1-inside-1_301_119)"/>
<path d="M25.078 19.5376C25.7776 19.5376 26.3452 18.9512 26.3452 18.2278C26.3452 17.5043 25.7776 16.9179 25.078 16.9179C24.3781 16.9179 23.8108 17.5043 23.8108 18.2278C23.8108 18.9512 24.3781 19.5376 25.078 19.5376Z" stroke="#323245" stroke-width="2" mask="url(#path-1-inside-1_301_119)"/>
<path d="M33.3766 25.7326C33.3766 26.456 32.8093 27.0424 32.1096 27.0424C31.4097 27.0424 30.8424 26.456 30.8424 25.7326C30.8424 25.0093 31.4097 24.4229 32.1096 24.4229C32.8093 24.4229 33.3766 25.0093 33.3766 25.7326Z" stroke="#323245" stroke-width="2" mask="url(#path-1-inside-1_301_119)"/>
<path d="M34.8904 16.6552C35.4103 16.6552 35.8318 16.2194 35.8318 15.6818C35.8318 15.1445 35.4103 14.7085 34.8904 14.7085C34.3703 14.7085 33.9488 15.1445 33.9488 15.6818C33.9488 16.2194 34.3703 16.6552 34.8904 16.6552Z" stroke="#323245" stroke-width="2" mask="url(#path-1-inside-1_301_119)"/>
<path d="M24.3837 14.6446C24.3837 15.1822 23.9622 15.6179 23.4423 15.6179C22.9222 15.6179 22.5007 15.1822 22.5007 14.6446C22.5007 14.107 22.9222 13.6712 23.4423 13.6712C23.9622 13.6712 24.3837 14.107 24.3837 14.6446Z" stroke="#323245" stroke-width="2" mask="url(#path-1-inside-1_301_119)"/>
<path d="M33.8238 6.73073C34.5964 6.73073 35.2228 6.08321 35.2228 5.28449C35.2228 4.48574 34.5964 3.83822 33.8238 3.83822C33.0511 3.83822 32.4247 4.48574 32.4247 5.28449C32.4247 6.08321 33.0511 6.73073 33.8238 6.73073Z" stroke="#323245" stroke-width="2" mask="url(#path-1-inside-1_301_119)"/>
<path d="M18.4977 22.9034C19.1101 22.9034 19.6065 22.3904 19.6065 21.7573C19.6065 21.1245 19.1101 20.6112 18.4977 20.6112C17.8855 20.6112 17.3888 21.1245 17.3888 21.7573C17.3888 22.3904 17.8855 22.9034 18.4977 22.9034Z" stroke="#323245" stroke-width="2" mask="url(#path-1-inside-1_301_119)"/>
<path d="M19.6065 28.0064C19.6065 28.6395 19.1101 29.1526 18.4977 29.1526C17.8855 29.1526 17.3888 28.6395 17.3888 28.0064C17.3888 27.3736 17.8855 26.8603 18.4977 26.8603C19.1101 26.8603 19.6065 27.3736 19.6065 28.0064Z" stroke="#323245" stroke-width="2" mask="url(#path-1-inside-1_301_119)"/>
<path d="M16.3058 25.832C16.9182 25.832 17.4146 25.3187 17.4146 24.6859C17.4146 24.0528 16.9182 23.5397 16.3058 23.5397C15.6933 23.5397 15.197 24.0528 15.197 24.6859C15.197 25.3187 15.6933 25.832 16.3058 25.832Z" stroke="#323245" stroke-width="2" mask="url(#path-1-inside-1_301_119)"/>
<path d="M21.7956 24.6859C21.7956 25.3187 21.2992 25.832 20.6868 25.832C20.0746 25.832 19.5782 25.3187 19.5782 24.6859C19.5782 24.0528 20.0746 23.5397 20.6868 23.5397C21.2992 23.5397 21.7956 24.0528 21.7956 24.6859Z" stroke="#323245" stroke-width="2" mask="url(#path-1-inside-1_301_119)"/>
<path d="M16.8839 32C17.1465 32 17.3591 31.78 17.3591 31.5088C17.3591 31.2376 17.1465 31.0176 16.8839 31.0176C16.6215 31.0176 16.4089 31.2376 16.4089 31.5088C16.4089 31.78 16.6215 32 16.8839 32Z" stroke="#323245" stroke-width="2" mask="url(#path-1-inside-1_301_119)"/>
<path d="M20.5916 31.5088C20.5916 31.78 20.3787 32 20.1164 32C19.8537 32 19.6412 31.78 19.6412 31.5088C19.6412 31.2376 19.8537 31.0176 20.1164 31.0176C20.3787 31.0176 20.5916 31.2376 20.5916 31.5088Z" stroke="#323245" stroke-width="2" mask="url(#path-1-inside-1_301_119)"/>
</svg>
